<svg width="64" height="64" viewBox="0 0 64 64" fill="none" xmlns="http://www.w3.org/2000/svg">
<path d="M31.2798 17.3383C31.5194 17.3266 31.7596 17.3207 32.0001 17.3207C32.2406 17.3207 32.4807 17.3266 32.7204 17.3383L33.483 1.81417C32.9896 1.78993 32.4951 1.77777 32.0001 1.77777C31.505 1.77777 31.0106 1.78993 30.5172 1.81417L31.2798 17.3383Z" fill="url(#paint0_linear_1_10547)"/>
<path d="M28.4332 17.7606C28.8993 17.6438 29.3709 17.55 29.8462 17.4795L27.5655 2.10488C26.5871 2.25003 25.6163 2.44313 24.6567 2.68349L28.4332 17.7606Z" fill="url(#paint1_linear_1_10547)"/>
<path d="M34.154 17.4795C34.6293 17.55 35.1008 17.6438 35.5669 17.7606L39.3435 2.68349C38.3839 2.44313 37.4131 2.25003 36.4346 2.10488L34.154 17.4795Z" fill="url(#paint2_linear_1_10547)"/>
<path d="M26.3825 18.438C26.6047 18.346 26.8288 18.2596 27.0548 18.1787L21.8185 3.54444C21.3534 3.71087 20.8919 3.88885 20.4345 4.0783C19.9771 4.26775 19.525 4.46821 19.0784 4.67942L25.7238 18.73C25.9407 18.6274 26.1603 18.5301 26.3825 18.438Z" fill="url(#paint3_linear_1_10547)"/>
<path d="M36.9454 18.1787C37.1713 18.2596 37.3955 18.346 37.6176 18.438C37.8398 18.5301 38.0594 18.6274 38.2763 18.73L44.9217 4.67943C44.4751 4.46821 44.023 4.26775 43.5656 4.0783C43.1083 3.88885 42.6468 3.71087 42.1817 3.54444L36.9454 18.1787Z" fill="url(#paint4_linear_1_10547)"/>
<path d="M23.2556 20.2094C23.6415 19.9232 24.0413 19.6561 24.4534 19.4091L16.4627 6.07753C15.6142 6.58609 14.7913 7.136 13.9967 7.72527L23.2556 20.2094Z" fill="url(#paint5_linear_1_10547)"/>
<path d="M39.5468 19.4091C39.9589 19.6561 40.3587 19.9232 40.7446 20.2094L50.0035 7.72528C49.2089 7.13601 48.3859 6.58609 47.5374 6.07753L39.5468 19.4091Z" fill="url(#paint6_linear_1_10547)"/>
<path d="M21.6202 21.6201C21.7902 21.4501 21.9642 21.2844 22.142 21.1233L11.704 9.60681C11.338 9.93858 10.9798 10.2796 10.6297 10.6297C10.2797 10.9797 9.93864 11.3379 9.60687 11.704L21.1234 22.1419C21.2845 21.9641 21.4502 21.7901 21.6202 21.6201Z" fill="url(#paint7_linear_1_10547)"/>
<path d="M41.8582 21.1233C42.0359 21.2844 42.2099 21.4501 42.3799 21.6201C42.55 21.7901 42.7157 21.9641 42.8768 22.142L54.3933 11.704C54.0615 11.3379 53.7204 10.9797 53.3704 10.6297C53.0204 10.2796 52.6621 9.93858 52.2961 9.60681L41.8582 21.1233Z" fill="url(#paint8_linear_1_10547)"/>
<path d="M19.4091 24.4533C19.6562 24.0412 19.9233 23.6414 20.2095 23.2555L7.72534 13.9966C7.13607 14.7912 6.58616 15.6142 6.0776 16.4627L19.4091 24.4533Z" fill="url(#paint9_linear_1_10547)"/>
<path d="M43.7906 23.2555C44.0769 23.6414 44.344 24.0412 44.591 24.4533L57.9225 16.4627C57.414 15.6142 56.8641 14.7912 56.2748 13.9966L43.7906 23.2555Z" fill="url(#paint10_linear_1_10547)"/>
<path d="M18.4381 26.3824C18.5301 26.1603 18.6275 25.9406 18.7301 25.7238L4.67949 19.0783C4.46827 19.5249 4.26781 19.9771 4.07836 20.4344C3.88892 20.8918 3.71093 21.3533 3.5445 21.8184L18.1788 27.0547C18.2596 26.8288 18.3461 26.6046 18.4381 26.3824Z" fill="url(#paint11_linear_1_10547)"/>
<path d="M45.27 25.7238C45.3727 25.9406 45.47 26.1603 45.5621 26.3824C45.6541 26.6046 45.7405 26.8288 45.8214 27.0547L60.4556 21.8185C60.2892 21.3533 60.1112 20.8919 59.9218 20.4345C59.7323 19.9771 59.5318 19.5249 59.3206 19.0783L45.27 25.7238Z" fill="url(#paint12_linear_1_10547)"/>
<path d="M17.4796 29.8461C17.5501 29.3708 17.6439 28.8993 17.7606 28.4332L2.68355 24.6566C2.4432 25.6162 2.25009 26.5869 2.10494 27.5655L17.4796 29.8461Z" fill="url(#paint13_linear_1_10547)"/>
<path d="M46.2395 28.4332C46.3562 28.8993 46.4501 29.3708 46.5206 29.8461L61.8952 27.5655C61.75 26.587 61.5569 25.6162 61.3166 24.6566L46.2395 28.4332Z" fill="url(#paint14_linear_1_10547)"/>
<path d="M17.3207 32C17.3207 31.7595 17.3266 31.5193 17.3384 31.2797L1.81423 30.5171C1.79 31.0105 1.77783 31.505 1.77783 32C1.77783 35.9689 2.55955 39.8988 4.07836 43.5655C5.59717 47.2323 7.82333 50.564 10.6297 53.3703C13.4361 56.1767 16.7678 58.4029 20.4345 59.9217C24.1012 61.4405 28.0312 62.2222 32.0001 62.2222C35.9689 62.2222 39.8989 61.4405 43.5656 59.9217C47.2323 58.4029 50.564 56.1767 53.3704 53.3703C56.1768 50.564 58.4029 47.2323 59.9218 43.5655C61.4405 39.8988 62.2223 35.9689 62.2223 32C62.2223 31.505 62.2101 31.0105 62.1859 30.5171L46.6617 31.2797C46.6735 31.5194 46.6794 31.7596 46.6794 32C46.6794 33.9277 46.2997 35.8365 45.5621 37.6176C44.8243 39.3985 43.7431 41.0168 42.3799 42.3799C41.0168 43.743 39.3986 44.8242 37.6176 45.562C35.8366 46.2997 33.9278 46.6793 32.0001 46.6793C30.0724 46.6793 28.1635 46.2997 26.3825 45.562C24.6015 44.8242 22.9833 43.743 21.6202 42.3799C20.257 41.0168 19.1758 39.3985 18.4381 37.6176C17.7004 35.8365 17.3207 33.9277 17.3207 32Z" fill="url(#paint15_linear_1_10547)"/>
<path d="M32.002 17.3201C31.7615 17.3201 31.5213 17.326 31.2817 17.3379L30.9921 11.4424C31.6617 11.1537 32.3481 10.8966 33.0497 10.6732L32.7223 17.3379C32.4826 17.326 32.2424 17.3201 32.002 17.3201Z" fill="#2E3DA3"/>
<path d="M35.2513 10.0945L34.1559 17.479C34.6312 17.5496 35.1027 17.6433 35.5688 17.7601L37.5788 9.7357C36.7901 9.81508 36.0136 9.93543 35.2513 10.0945Z" fill="#2E3DA3"/>
<path d="M40.0085 9.6228L36.9473 18.1782C37.1732 18.2591 37.3974 18.3455 37.6195 18.4375C37.8417 18.5296 38.0614 18.6269 38.2782 18.7296L42.5114 9.77922C41.69 9.6817 40.8548 9.62878 40.0085 9.6228Z" fill="#2E3DA3"/>
<path d="M45.05 10.2303L39.5487 19.4086C39.9608 19.6556 40.3605 19.9227 40.7465 20.209L47.5803 10.9946C46.7585 10.6919 45.914 10.436 45.05 10.2303Z" fill="#2E3DA3"/>
<path d="M50.0551 12.081L41.86 21.1228C42.0379 21.2839 42.2118 21.4496 42.3819 21.6197C42.5519 21.7897 42.7175 21.9637 42.8787 22.1415L52.425 13.4892C51.6671 12.9732 50.8758 12.5024 50.0551 12.081Z" fill="#2E3DA3"/>
<path d="M54.6406 15.2096L43.7926 23.255C44.0788 23.6409 44.3459 24.0407 44.5929 24.4528L56.6531 17.2242C56.0254 16.511 55.3532 15.838 54.6406 15.2096Z" fill="#2E3DA3"/>
<path d="M58.4152 19.507L45.272 25.7233C45.3746 25.9402 45.4719 26.1598 45.5639 26.382C45.656 26.6041 45.7424 26.8283 45.8233 27.0542L59.8829 22.0236C59.4475 21.1507 58.9567 20.3103 58.4152 19.507Z" fill="#2E3DA3"/>
<path d="M61.0174 24.7316L46.2414 28.4327C46.3582 28.8988 46.452 29.3703 46.5225 29.8456L61.7881 27.5812C61.593 26.607 61.3346 25.6556 61.0174 24.7316Z" fill="#2E3DA3"/>
<path d="M62.1759 30.5172L46.6637 31.2792C46.6754 31.5189 46.6813 31.759 46.6813 31.9995C46.6813 33.9272 46.3016 35.8361 45.5639 37.6171C44.8262 39.3981 43.7449 41.0163 42.3819 42.3794C41.0187 43.7425 39.4005 44.8238 37.6195 45.5615C35.8385 46.2992 33.9296 46.6789 32.0019 46.6789C30.0742 46.6789 28.1654 46.2992 26.3844 45.5615C24.6034 44.8238 22.9852 43.7425 21.6221 42.3794C20.259 41.0163 19.1777 39.3981 18.44 37.6171C18.1481 36.9125 17.9123 36.188 17.734 35.4502C19.3932 46.1705 28.6617 54.3769 39.8468 54.3769C52.2055 54.3769 62.2242 44.3582 62.2242 31.9995C62.2242 31.5015 62.2079 31.0072 62.1759 30.5172Z" fill="#2E3DA3"/>
<path d="M17.7339 28.5492C17.7433 28.5103 17.7528 28.4715 17.7626 28.4327L17.7526 28.4302C17.7462 28.4698 17.74 28.5095 17.7339 28.5492Z" fill="#2E3DA3"/>
<path d="M18.0301 27.0003L18.1807 27.0542C18.2616 26.8283 18.348 26.6041 18.44 26.382C18.532 26.1598 18.6294 25.9402 18.732 25.7233L18.407 25.5696C18.2661 26.0402 18.1403 26.5172 18.0301 27.0003Z" fill="#2E3DA3"/>
<path d="M18.8888 24.1397L19.4111 24.4528C19.6581 24.0407 19.9252 23.6409 20.2114 23.255L19.4812 22.7135C19.2679 23.1805 19.0702 23.6562 18.8888 24.1397Z" fill="#2E3DA3"/>
<path d="M20.1912 21.2948L21.1253 22.1415C21.2864 21.9637 21.4521 21.7897 21.6221 21.6196C21.7921 21.4496 21.9661 21.2839 22.1439 21.1228L21.0262 19.8896C20.7314 20.3469 20.4528 20.8156 20.1912 21.2948Z" fill="#2E3DA3"/>
<path d="M21.9942 18.5057L23.2575 20.209C23.6434 19.9227 24.0431 19.6556 24.4553 19.4086L23.1034 17.1532C22.7166 17.5891 22.3465 18.0403 21.9942 18.5057Z" fill="#2E3DA3"/>
<path d="M24.3617 15.8454L25.7257 18.7296C25.9426 18.6269 26.1623 18.5296 26.3844 18.4375C26.6066 18.3455 26.8308 18.2591 27.0566 18.1782L25.7759 14.5988C25.287 14.9946 24.8152 15.4106 24.3617 15.8454Z" fill="#2E3DA3"/>
<path d="M27.3513 13.4332L28.4352 17.7601C28.9013 17.6433 29.3728 17.5496 29.8481 17.479L29.0905 12.3722C28.4937 12.6999 27.9135 13.0541 27.3513 13.4332Z" fill="#2E3DA3"/>
<defs>
<linearGradient id="paint0_linear_1_10547" x1="-6.98661" y1="-5.17335" x2="58.7467" y2="62.2222" gradientUnits="userSpaceOnUse">
<stop offset="0.0363151" stop-color="#2E3DA3"/>
<stop offset="1" stop-color="#96A4FD"/>
</linearGradient>
<linearGradient id="paint1_linear_1_10547" x1="-6.98661" y1="-5.17335" x2="58.7467" y2="62.2222" gradientUnits="userSpaceOnUse">
<stop offset="0.0363151" stop-color="#2E3DA3"/>
<stop offset="1" stop-color="#96A4FD"/>
</linearGradient>
<linearGradient id="paint2_linear_1_10547" x1="-6.98661" y1="-5.17335" x2="58.7467" y2="62.2222" gradientUnits="userSpaceOnUse">
<stop offset="0.0363151" stop-color="#2E3DA3"/>
<stop offset="1" stop-color="#96A4FD"/>
</linearGradient>
<linearGradient id="paint3_linear_1_10547" x1="-6.98661" y1="-5.17335" x2="58.7467" y2="62.2222" gradientUnits="userSpaceOnUse">
<stop offset="0.0363151" stop-color="#2E3DA3"/>
<stop offset="1" stop-color="#96A4FD"/>
</linearGradient>
<linearGradient id="paint4_linear_1_10547" x1="-6.98661" y1="-5.17335" x2="58.7467" y2="62.2222" gradientUnits="userSpaceOnUse">
<stop offset="0.0363151" stop-color="#2E3DA3"/>
<stop offset="1" stop-color="#96A4FD"/>
</linearGradient>
<linearGradient id="paint5_linear_1_10547" x1="-6.98661" y1="-5.17335" x2="58.7467" y2="62.2222" gradientUnits="userSpaceOnUse">
<stop offset="0.0363151" stop-color="#2E3DA3"/>
<stop offset="1" stop-color="#96A4FD"/>
</linearGradient>
<linearGradient id="paint6_linear_1_10547" x1="-6.98661" y1="-5.17335" x2="58.7467" y2="62.2222" gradientUnits="userSpaceOnUse">
<stop offset="0.0363151" stop-color="#2E3DA3"/>
<stop offset="1" stop-color="#96A4FD"/>
</linearGradient>
<linearGradient id="paint7_linear_1_10547" x1="-6.98661" y1="-5.17335" x2="58.7467" y2="62.2222" gradientUnits="userSpaceOnUse">
<stop offset="0.0363151" stop-color="#2E3DA3"/>
<stop offset="1" stop-color="#96A4FD"/>
</linearGradient>
<linearGradient id="paint8_linear_1_10547" x1="-6.98661" y1="-5.17335" x2="58.7467" y2="62.2222" gradientUnits="userSpaceOnUse">
<stop offset="0.0363151" stop-color="#2E3DA3"/>
<stop offset="1" stop-color="#96A4FD"/>
</linearGradient>
<linearGradient id="paint9_linear_1_10547" x1="-6.98661" y1="-5.17335" x2="58.7467" y2="62.2222" gradientUnits="userSpaceOnUse">
<stop offset="0.0363151" stop-color="#2E3DA3"/>
<stop offset="1" stop-color="#96A4FD"/>
</linearGradient>
<linearGradient id="paint10_linear_1_10547" x1="-6.98661" y1="-5.17335" x2="58.7467" y2="62.2222" gradientUnits="userSpaceOnUse">
<stop offset="0.0363151" stop-color="#2E3DA3"/>
<stop offset="1" stop-color="#96A4FD"/>
</linearGradient>
<linearGradient id="paint11_linear_1_10547" x1="-6.98661" y1="-5.17335" x2="58.7467" y2="62.2222" gradientUnits="userSpaceOnUse">
<stop offset="0.0363151" stop-color="#2E3DA3"/>
<stop offset="1" stop-color="#96A4FD"/>
</linearGradient>
<linearGradient id="paint12_linear_1_10547" x1="-6.98661" y1="-5.17335" x2="58.7467" y2="62.2222" gradientUnits="userSpaceOnUse">
<stop offset="0.0363151" stop-color="#2E3DA3"/>
<stop offset="1" stop-color="#96A4FD"/>
</linearGradient>
<linearGradient id="paint13_linear_1_10547" x1="-6.98661" y1="-5.17335" x2="58.7467" y2="62.2222" gradientUnits="userSpaceOnUse">
<stop offset="0.0363151" stop-color="#2E3DA3"/>
<stop offset="1" stop-color="#96A4FD"/>
</linearGradient>
<linearGradient id="paint14_linear_1_10547" x1="-6.98661" y1="-5.17335" x2="58.7467" y2="62.2222" gradientUnits="userSpaceOnUse">
<stop offset="0.0363151" stop-color="#2E3DA3"/>
<stop offset="1" stop-color="#96A4FD"/>
</linearGradient>
<linearGradient id="paint15_linear_1_10547" x1="-6.98661" y1="-5.17335" x2="58.7467" y2="62.2222" gradientUnits="userSpaceOnUse">
<stop offset="0.0363151" stop-color="#2E3DA3"/>
<stop offset="1" stop-color="#96A4FD"/>
</linearGradient>
</defs>
</svg>
